<mxfile host="Electron" modified="2024-12-14T16:18:34.846Z" agent="Mozilla/5.0 (Windows NT 10.0; Win64; x64) AppleWebKit/537.36 (KHTML, like Gecko) draw.io/24.5.1 Chrome/124.0.6367.207 Electron/30.0.6 Safari/537.36" etag="6r0SDX7GrdElMlW64h8-" version="24.5.1" type="device">
  <diagram name="Page-1" id="WCiDhAtAkIarbk9Dte1k">
    <mxGraphModel dx="1434" dy="1984" grid="1" gridSize="10" guides="1" tooltips="1" connect="1" arrows="1" fold="1" page="1" pageScale="1" pageWidth="850" pageHeight="1100" math="0" shadow="0">
      <root>
        <mxCell id="0" />
        <mxCell id="1" parent="0" />
        <mxCell id="6kZoRdeB-bCqWQSc7o0m-1" value="Engine Control Unit" style="rounded=0;whiteSpace=wrap;html=1;" vertex="1" parent="1">
          <mxGeometry x="150" y="180" width="120" height="60" as="geometry" />
        </mxCell>
        <mxCell id="6kZoRdeB-bCqWQSc7o0m-2" value="Telematics" style="rounded=0;whiteSpace=wrap;html=1;" vertex="1" parent="1">
          <mxGeometry x="330" y="180" width="120" height="60" as="geometry" />
        </mxCell>
        <mxCell id="6kZoRdeB-bCqWQSc7o0m-9" style="edgeStyle=orthogonalEdgeStyle;rounded=0;orthogonalLoop=1;jettySize=auto;html=1;endArrow=none;endFill=0;" edge="1" parent="1">
          <mxGeometry relative="1" as="geometry">
            <mxPoint x="580" y="269.9999999999999" as="targetPoint" />
            <mxPoint x="579.9999999999999" y="240" as="sourcePoint" />
          </mxGeometry>
        </mxCell>
        <mxCell id="6kZoRdeB-bCqWQSc7o0m-3" value="Event Data Recorder" style="rounded=0;whiteSpace=wrap;html=1;" vertex="1" parent="1">
          <mxGeometry x="510" y="180" width="120" height="60" as="geometry" />
        </mxCell>
        <mxCell id="6kZoRdeB-bCqWQSc7o0m-4" value="Tire-pressure monitor" style="rounded=0;whiteSpace=wrap;html=1;" vertex="1" parent="1">
          <mxGeometry x="190" y="320" width="120" height="60" as="geometry" />
        </mxCell>
        <mxCell id="6kZoRdeB-bCqWQSc7o0m-5" value="Body controller" style="rounded=0;whiteSpace=wrap;html=1;" vertex="1" parent="1">
          <mxGeometry x="370" y="320" width="120" height="60" as="geometry" />
        </mxCell>
        <mxCell id="6kZoRdeB-bCqWQSc7o0m-6" value="Infotainment" style="rounded=0;whiteSpace=wrap;html=1;" vertex="1" parent="1">
          <mxGeometry x="550" y="320" width="120" height="60" as="geometry" />
        </mxCell>
        <mxCell id="6kZoRdeB-bCqWQSc7o0m-7" value="" style="endArrow=none;html=1;rounded=0;" edge="1" parent="1">
          <mxGeometry width="50" height="50" relative="1" as="geometry">
            <mxPoint x="120" y="270" as="sourcePoint" />
            <mxPoint x="680" y="270" as="targetPoint" />
          </mxGeometry>
        </mxCell>
        <mxCell id="6kZoRdeB-bCqWQSc7o0m-8" value="" style="endArrow=none;html=1;rounded=0;" edge="1" parent="1">
          <mxGeometry width="50" height="50" relative="1" as="geometry">
            <mxPoint x="140" y="290" as="sourcePoint" />
            <mxPoint x="700" y="290" as="targetPoint" />
          </mxGeometry>
        </mxCell>
        <mxCell id="6kZoRdeB-bCqWQSc7o0m-10" style="edgeStyle=orthogonalEdgeStyle;rounded=0;orthogonalLoop=1;jettySize=auto;html=1;endArrow=none;endFill=0;" edge="1" parent="1">
          <mxGeometry relative="1" as="geometry">
            <mxPoint x="560" y="290" as="targetPoint" />
            <mxPoint x="559.9999999999999" y="240" as="sourcePoint" />
          </mxGeometry>
        </mxCell>
        <mxCell id="6kZoRdeB-bCqWQSc7o0m-11" style="edgeStyle=orthogonalEdgeStyle;rounded=0;orthogonalLoop=1;jettySize=auto;html=1;endArrow=none;endFill=0;" edge="1" parent="1">
          <mxGeometry relative="1" as="geometry">
            <mxPoint x="400" y="269.9999999999999" as="targetPoint" />
            <mxPoint x="399.9999999999999" y="240" as="sourcePoint" />
          </mxGeometry>
        </mxCell>
        <mxCell id="6kZoRdeB-bCqWQSc7o0m-12" style="edgeStyle=orthogonalEdgeStyle;rounded=0;orthogonalLoop=1;jettySize=auto;html=1;endArrow=none;endFill=0;" edge="1" parent="1">
          <mxGeometry relative="1" as="geometry">
            <mxPoint x="380" y="290" as="targetPoint" />
            <mxPoint x="379.9999999999999" y="240" as="sourcePoint" />
          </mxGeometry>
        </mxCell>
        <mxCell id="6kZoRdeB-bCqWQSc7o0m-13" style="edgeStyle=orthogonalEdgeStyle;rounded=0;orthogonalLoop=1;jettySize=auto;html=1;endArrow=none;endFill=0;" edge="1" parent="1">
          <mxGeometry relative="1" as="geometry">
            <mxPoint x="220" y="269.9999999999999" as="targetPoint" />
            <mxPoint x="219.9999999999999" y="240" as="sourcePoint" />
          </mxGeometry>
        </mxCell>
        <mxCell id="6kZoRdeB-bCqWQSc7o0m-14" style="edgeStyle=orthogonalEdgeStyle;rounded=0;orthogonalLoop=1;jettySize=auto;html=1;endArrow=none;endFill=0;" edge="1" parent="1">
          <mxGeometry relative="1" as="geometry">
            <mxPoint x="200" y="290" as="targetPoint" />
            <mxPoint x="199.9999999999999" y="240" as="sourcePoint" />
          </mxGeometry>
        </mxCell>
        <mxCell id="6kZoRdeB-bCqWQSc7o0m-16" style="edgeStyle=orthogonalEdgeStyle;rounded=0;orthogonalLoop=1;jettySize=auto;html=1;endArrow=none;endFill=0;" edge="1" parent="1">
          <mxGeometry relative="1" as="geometry">
            <mxPoint x="260" y="320" as="targetPoint" />
            <mxPoint x="259.9999999999999" y="270" as="sourcePoint" />
          </mxGeometry>
        </mxCell>
        <mxCell id="6kZoRdeB-bCqWQSc7o0m-17" style="edgeStyle=orthogonalEdgeStyle;rounded=0;orthogonalLoop=1;jettySize=auto;html=1;endArrow=none;endFill=0;" edge="1" parent="1">
          <mxGeometry relative="1" as="geometry">
            <mxPoint x="240" y="319.9999999999999" as="targetPoint" />
            <mxPoint x="239.9999999999999" y="290" as="sourcePoint" />
          </mxGeometry>
        </mxCell>
        <mxCell id="6kZoRdeB-bCqWQSc7o0m-20" style="edgeStyle=orthogonalEdgeStyle;rounded=0;orthogonalLoop=1;jettySize=auto;html=1;endArrow=none;endFill=0;" edge="1" parent="1">
          <mxGeometry relative="1" as="geometry">
            <mxPoint x="439.72" y="320" as="targetPoint" />
            <mxPoint x="439.7199999999999" y="270" as="sourcePoint" />
          </mxGeometry>
        </mxCell>
        <mxCell id="6kZoRdeB-bCqWQSc7o0m-21" style="edgeStyle=orthogonalEdgeStyle;rounded=0;orthogonalLoop=1;jettySize=auto;html=1;endArrow=none;endFill=0;" edge="1" parent="1">
          <mxGeometry relative="1" as="geometry">
            <mxPoint x="419.72" y="319.9999999999999" as="targetPoint" />
            <mxPoint x="419.7199999999999" y="290" as="sourcePoint" />
          </mxGeometry>
        </mxCell>
        <mxCell id="6kZoRdeB-bCqWQSc7o0m-22" style="edgeStyle=orthogonalEdgeStyle;rounded=0;orthogonalLoop=1;jettySize=auto;html=1;endArrow=none;endFill=0;" edge="1" parent="1">
          <mxGeometry relative="1" as="geometry">
            <mxPoint x="619.72" y="320" as="targetPoint" />
            <mxPoint x="619.7199999999999" y="270" as="sourcePoint" />
          </mxGeometry>
        </mxCell>
        <mxCell id="6kZoRdeB-bCqWQSc7o0m-23" style="edgeStyle=orthogonalEdgeStyle;rounded=0;orthogonalLoop=1;jettySize=auto;html=1;endArrow=none;endFill=0;" edge="1" parent="1">
          <mxGeometry relative="1" as="geometry">
            <mxPoint x="599.72" y="319.9999999999999" as="targetPoint" />
            <mxPoint x="599.7199999999999" y="290" as="sourcePoint" />
          </mxGeometry>
        </mxCell>
        <mxCell id="6kZoRdeB-bCqWQSc7o0m-24" value="&lt;font style=&quot;font-size: 12px;&quot;&gt;CAN&lt;/font&gt;" style="text;html=1;align=center;verticalAlign=middle;resizable=0;points=[];autosize=1;strokeColor=none;fillColor=none;" vertex="1" parent="1">
          <mxGeometry x="700" y="260" width="50" height="30" as="geometry" />
        </mxCell>
        <mxCell id="6kZoRdeB-bCqWQSc7o0m-28" style="edgeStyle=orthogonalEdgeStyle;rounded=0;orthogonalLoop=1;jettySize=auto;html=1;entryX=0.5;entryY=0;entryDx=0;entryDy=0;exitX=0.5;exitY=1;exitDx=0;exitDy=0;" edge="1" parent="1" source="6kZoRdeB-bCqWQSc7o0m-33" target="6kZoRdeB-bCqWQSc7o0m-3">
          <mxGeometry relative="1" as="geometry">
            <mxPoint x="540.0400000000002" y="150" as="sourcePoint" />
            <Array as="points">
              <mxPoint x="535" y="160" />
              <mxPoint x="570" y="160" />
            </Array>
          </mxGeometry>
        </mxCell>
        <mxCell id="6kZoRdeB-bCqWQSc7o0m-29" style="edgeStyle=orthogonalEdgeStyle;rounded=0;orthogonalLoop=1;jettySize=auto;html=1;entryX=0.5;entryY=0;entryDx=0;entryDy=0;" edge="1" parent="1" source="6kZoRdeB-bCqWQSc7o0m-27" target="6kZoRdeB-bCqWQSc7o0m-3">
          <mxGeometry relative="1" as="geometry">
            <Array as="points">
              <mxPoint x="610" y="160" />
              <mxPoint x="570" y="160" />
            </Array>
          </mxGeometry>
        </mxCell>
        <mxCell id="6kZoRdeB-bCqWQSc7o0m-27" value="Storage" style="rounded=0;whiteSpace=wrap;html=1;" vertex="1" parent="1">
          <mxGeometry x="580" y="120" width="50" height="30" as="geometry" />
        </mxCell>
        <mxCell id="6kZoRdeB-bCqWQSc7o0m-33" value="CAN-Module" style="rounded=0;whiteSpace=wrap;html=1;" vertex="1" parent="1">
          <mxGeometry x="510" y="120" width="50" height="30" as="geometry" />
        </mxCell>
        <mxCell id="6kZoRdeB-bCqWQSc7o0m-38" style="edgeStyle=orthogonalEdgeStyle;rounded=0;orthogonalLoop=1;jettySize=auto;html=1;" edge="1" parent="1" source="6kZoRdeB-bCqWQSc7o0m-34" target="6kZoRdeB-bCqWQSc7o0m-2">
          <mxGeometry relative="1" as="geometry">
            <Array as="points">
              <mxPoint x="425" y="160" />
              <mxPoint x="390" y="160" />
            </Array>
          </mxGeometry>
        </mxCell>
        <mxCell id="6kZoRdeB-bCqWQSc7o0m-87" style="edgeStyle=orthogonalEdgeStyle;rounded=0;orthogonalLoop=1;jettySize=auto;html=1;exitX=0.75;exitY=0;exitDx=0;exitDy=0;entryX=0.75;entryY=1;entryDx=0;entryDy=0;dashed=1;" edge="1" parent="1" source="6kZoRdeB-bCqWQSc7o0m-34" target="6kZoRdeB-bCqWQSc7o0m-83">
          <mxGeometry relative="1" as="geometry">
            <Array as="points">
              <mxPoint x="437" y="100" />
              <mxPoint x="490" y="100" />
            </Array>
          </mxGeometry>
        </mxCell>
        <mxCell id="6kZoRdeB-bCqWQSc7o0m-34" value="WiFi-Module" style="rounded=0;whiteSpace=wrap;html=1;" vertex="1" parent="1">
          <mxGeometry x="400" y="120" width="50" height="30" as="geometry" />
        </mxCell>
        <mxCell id="6kZoRdeB-bCqWQSc7o0m-39" style="edgeStyle=orthogonalEdgeStyle;rounded=0;orthogonalLoop=1;jettySize=auto;html=1;entryX=0.5;entryY=0;entryDx=0;entryDy=0;" edge="1" parent="1" source="6kZoRdeB-bCqWQSc7o0m-35" target="6kZoRdeB-bCqWQSc7o0m-2">
          <mxGeometry relative="1" as="geometry">
            <Array as="points">
              <mxPoint x="355" y="160" />
              <mxPoint x="390" y="160" />
            </Array>
          </mxGeometry>
        </mxCell>
        <mxCell id="6kZoRdeB-bCqWQSc7o0m-35" value="CAN-Module" style="rounded=0;whiteSpace=wrap;html=1;" vertex="1" parent="1">
          <mxGeometry x="330" y="120" width="50" height="30" as="geometry" />
        </mxCell>
        <mxCell id="6kZoRdeB-bCqWQSc7o0m-50" style="edgeStyle=orthogonalEdgeStyle;rounded=0;orthogonalLoop=1;jettySize=auto;html=1;entryX=0.5;entryY=0;entryDx=0;entryDy=0;" edge="1" parent="1" source="6kZoRdeB-bCqWQSc7o0m-36" target="6kZoRdeB-bCqWQSc7o0m-1">
          <mxGeometry relative="1" as="geometry">
            <Array as="points">
              <mxPoint x="260" y="160" />
              <mxPoint x="210" y="160" />
            </Array>
          </mxGeometry>
        </mxCell>
        <mxCell id="6kZoRdeB-bCqWQSc7o0m-36" value="Temperature&amp;nbsp; sensor" style="rounded=0;whiteSpace=wrap;html=1;" vertex="1" parent="1">
          <mxGeometry x="220" y="120" width="80" height="30" as="geometry" />
        </mxCell>
        <mxCell id="6kZoRdeB-bCqWQSc7o0m-40" style="edgeStyle=orthogonalEdgeStyle;rounded=0;orthogonalLoop=1;jettySize=auto;html=1;entryX=0.5;entryY=0;entryDx=0;entryDy=0;" edge="1" parent="1" source="6kZoRdeB-bCqWQSc7o0m-37" target="6kZoRdeB-bCqWQSc7o0m-1">
          <mxGeometry relative="1" as="geometry">
            <Array as="points">
              <mxPoint x="175" y="160" />
              <mxPoint x="210" y="160" />
            </Array>
          </mxGeometry>
        </mxCell>
        <mxCell id="6kZoRdeB-bCqWQSc7o0m-37" value="CAN-Module" style="rounded=0;whiteSpace=wrap;html=1;" vertex="1" parent="1">
          <mxGeometry x="150" y="120" width="50" height="30" as="geometry" />
        </mxCell>
        <mxCell id="6kZoRdeB-bCqWQSc7o0m-44" style="edgeStyle=orthogonalEdgeStyle;rounded=0;orthogonalLoop=1;jettySize=auto;html=1;entryX=0.5;entryY=1;entryDx=0;entryDy=0;" edge="1" parent="1" source="6kZoRdeB-bCqWQSc7o0m-42" target="6kZoRdeB-bCqWQSc7o0m-4">
          <mxGeometry relative="1" as="geometry">
            <Array as="points">
              <mxPoint x="285" y="400" />
              <mxPoint x="250" y="400" />
            </Array>
          </mxGeometry>
        </mxCell>
        <mxCell id="6kZoRdeB-bCqWQSc7o0m-42" value="Pressure sensor" style="rounded=0;whiteSpace=wrap;html=1;" vertex="1" parent="1">
          <mxGeometry x="260" y="410" width="50" height="30" as="geometry" />
        </mxCell>
        <mxCell id="6kZoRdeB-bCqWQSc7o0m-45" style="edgeStyle=orthogonalEdgeStyle;rounded=0;orthogonalLoop=1;jettySize=auto;html=1;entryX=0.5;entryY=1;entryDx=0;entryDy=0;" edge="1" parent="1" source="6kZoRdeB-bCqWQSc7o0m-43" target="6kZoRdeB-bCqWQSc7o0m-4">
          <mxGeometry relative="1" as="geometry">
            <Array as="points">
              <mxPoint x="215" y="400" />
              <mxPoint x="250" y="400" />
            </Array>
          </mxGeometry>
        </mxCell>
        <mxCell id="6kZoRdeB-bCqWQSc7o0m-43" value="CAN-Module" style="rounded=0;whiteSpace=wrap;html=1;" vertex="1" parent="1">
          <mxGeometry x="190" y="410" width="50" height="30" as="geometry" />
        </mxCell>
        <mxCell id="6kZoRdeB-bCqWQSc7o0m-46" style="edgeStyle=orthogonalEdgeStyle;rounded=0;orthogonalLoop=1;jettySize=auto;html=1;entryX=0.5;entryY=1;entryDx=0;entryDy=0;" edge="1" parent="1" source="6kZoRdeB-bCqWQSc7o0m-47">
          <mxGeometry relative="1" as="geometry">
            <mxPoint x="430" y="380" as="targetPoint" />
            <Array as="points">
              <mxPoint x="465" y="400" />
              <mxPoint x="430" y="400" />
            </Array>
          </mxGeometry>
        </mxCell>
        <mxCell id="6kZoRdeB-bCqWQSc7o0m-47" value="Headlights" style="rounded=0;whiteSpace=wrap;html=1;" vertex="1" parent="1">
          <mxGeometry x="440" y="410" width="60" height="30" as="geometry" />
        </mxCell>
        <mxCell id="6kZoRdeB-bCqWQSc7o0m-48" style="edgeStyle=orthogonalEdgeStyle;rounded=0;orthogonalLoop=1;jettySize=auto;html=1;entryX=0.5;entryY=1;entryDx=0;entryDy=0;" edge="1" parent="1" source="6kZoRdeB-bCqWQSc7o0m-49">
          <mxGeometry relative="1" as="geometry">
            <mxPoint x="430" y="380" as="targetPoint" />
            <Array as="points">
              <mxPoint x="395" y="400" />
              <mxPoint x="430" y="400" />
            </Array>
          </mxGeometry>
        </mxCell>
        <mxCell id="6kZoRdeB-bCqWQSc7o0m-49" value="CAN-Module" style="rounded=0;whiteSpace=wrap;html=1;" vertex="1" parent="1">
          <mxGeometry x="370" y="410" width="50" height="30" as="geometry" />
        </mxCell>
        <mxCell id="6kZoRdeB-bCqWQSc7o0m-52" style="edgeStyle=orthogonalEdgeStyle;rounded=0;orthogonalLoop=1;jettySize=auto;html=1;" edge="1" parent="1" source="6kZoRdeB-bCqWQSc7o0m-51">
          <mxGeometry relative="1" as="geometry">
            <mxPoint x="430" y="380" as="targetPoint" />
          </mxGeometry>
        </mxCell>
        <mxCell id="6kZoRdeB-bCqWQSc7o0m-51" value="Blinkers" style="rounded=0;whiteSpace=wrap;html=1;" vertex="1" parent="1">
          <mxGeometry x="400" y="450" width="60" height="30" as="geometry" />
        </mxCell>
        <mxCell id="6kZoRdeB-bCqWQSc7o0m-59" style="edgeStyle=orthogonalEdgeStyle;rounded=0;orthogonalLoop=1;jettySize=auto;html=1;entryX=0.5;entryY=1;entryDx=0;entryDy=0;" edge="1" parent="1" source="6kZoRdeB-bCqWQSc7o0m-53" target="6kZoRdeB-bCqWQSc7o0m-6">
          <mxGeometry relative="1" as="geometry">
            <Array as="points">
              <mxPoint x="575" y="400" />
              <mxPoint x="610" y="400" />
            </Array>
          </mxGeometry>
        </mxCell>
        <mxCell id="6kZoRdeB-bCqWQSc7o0m-53" value="CAN-Module" style="rounded=0;whiteSpace=wrap;html=1;" vertex="1" parent="1">
          <mxGeometry x="550" y="410" width="50" height="30" as="geometry" />
        </mxCell>
        <mxCell id="6kZoRdeB-bCqWQSc7o0m-78" style="edgeStyle=orthogonalEdgeStyle;rounded=0;orthogonalLoop=1;jettySize=auto;html=1;endArrow=none;endFill=0;" edge="1" parent="1">
          <mxGeometry relative="1" as="geometry">
            <mxPoint x="790" y="340" as="targetPoint" />
            <mxPoint x="790" y="370" as="sourcePoint" />
          </mxGeometry>
        </mxCell>
        <mxCell id="6kZoRdeB-bCqWQSc7o0m-54" value="LCD-Display" style="rounded=0;whiteSpace=wrap;html=1;" vertex="1" parent="1">
          <mxGeometry x="760" y="370" width="50" height="30" as="geometry" />
        </mxCell>
        <mxCell id="6kZoRdeB-bCqWQSc7o0m-55" value="Turn signal lever" style="rounded=0;whiteSpace=wrap;html=1;" vertex="1" parent="1">
          <mxGeometry x="680" y="370" width="65" height="30" as="geometry" />
        </mxCell>
        <mxCell id="6kZoRdeB-bCqWQSc7o0m-67" style="edgeStyle=orthogonalEdgeStyle;rounded=0;orthogonalLoop=1;jettySize=auto;html=1;entryX=0.5;entryY=1;entryDx=0;entryDy=0;" edge="1" parent="1" source="6kZoRdeB-bCqWQSc7o0m-56" target="6kZoRdeB-bCqWQSc7o0m-6">
          <mxGeometry relative="1" as="geometry">
            <Array as="points">
              <mxPoint x="645" y="400" />
              <mxPoint x="610" y="400" />
            </Array>
          </mxGeometry>
        </mxCell>
        <mxCell id="6kZoRdeB-bCqWQSc7o0m-56" value="Brake pedal&lt;span style=&quot;color: rgba(0, 0, 0, 0); font-family: monospace; font-size: 0px; text-align: start; text-wrap: nowrap;&quot;&gt;%3CmxGraphModel%3E%3Croot%3E%3CmxCell%20id%3D%220%22%2F%3E%3CmxCell%20id%3D%221%22%20parent%3D%220%22%2F%3E%3CmxCell%20id%3D%222%22%20value%3D%22CAN-Module%22%20style%3D%22rounded%3D0%3BwhiteSpace%3Dwrap%3Bhtml%3D1%3B%22%20vertex%3D%221%22%20parent%3D%221%22%3E%3CmxGeometry%20x%3D%22550%22%20y%3D%22400%22%20width%3D%2250%22%20height%3D%2230%22%20as%3D%22geometry%22%2F%3E%3C%2FmxCell%3E%3C%2Froot%3E%3C%2FmxGraphModel%3E&lt;/span&gt;" style="rounded=0;whiteSpace=wrap;html=1;" vertex="1" parent="1">
          <mxGeometry x="620" y="410" width="50" height="30" as="geometry" />
        </mxCell>
        <mxCell id="6kZoRdeB-bCqWQSc7o0m-66" style="edgeStyle=orthogonalEdgeStyle;rounded=0;orthogonalLoop=1;jettySize=auto;html=1;" edge="1" parent="1" source="6kZoRdeB-bCqWQSc7o0m-57">
          <mxGeometry relative="1" as="geometry">
            <mxPoint x="610" y="380" as="targetPoint" />
          </mxGeometry>
        </mxCell>
        <mxCell id="6kZoRdeB-bCqWQSc7o0m-57" value="Gas pedal" style="rounded=0;whiteSpace=wrap;html=1;" vertex="1" parent="1">
          <mxGeometry x="585" y="450" width="50" height="30" as="geometry" />
        </mxCell>
        <mxCell id="6kZoRdeB-bCqWQSc7o0m-68" value="" style="endArrow=none;html=1;rounded=0;entryX=1.003;entryY=0.38;entryDx=0;entryDy=0;entryPerimeter=0;" edge="1" parent="1">
          <mxGeometry width="50" height="50" relative="1" as="geometry">
            <mxPoint x="810" y="340" as="sourcePoint" />
            <mxPoint x="669.9999999999999" y="340.2800000000001" as="targetPoint" />
          </mxGeometry>
        </mxCell>
        <mxCell id="6kZoRdeB-bCqWQSc7o0m-69" value="" style="endArrow=none;html=1;rounded=0;entryX=1.003;entryY=0.38;entryDx=0;entryDy=0;entryPerimeter=0;" edge="1" parent="1">
          <mxGeometry width="50" height="50" relative="1" as="geometry">
            <mxPoint x="800" y="350" as="sourcePoint" />
            <mxPoint x="670" y="350.17" as="targetPoint" />
          </mxGeometry>
        </mxCell>
        <mxCell id="6kZoRdeB-bCqWQSc7o0m-79" style="edgeStyle=orthogonalEdgeStyle;rounded=0;orthogonalLoop=1;jettySize=auto;html=1;endArrow=none;endFill=0;" edge="1" parent="1">
          <mxGeometry relative="1" as="geometry">
            <mxPoint x="780" y="350" as="targetPoint" />
            <mxPoint x="780" y="370" as="sourcePoint" />
          </mxGeometry>
        </mxCell>
        <mxCell id="6kZoRdeB-bCqWQSc7o0m-80" style="edgeStyle=orthogonalEdgeStyle;rounded=0;orthogonalLoop=1;jettySize=auto;html=1;endArrow=none;endFill=0;" edge="1" parent="1">
          <mxGeometry relative="1" as="geometry">
            <mxPoint x="717.42" y="340" as="targetPoint" />
            <mxPoint x="717.42" y="370" as="sourcePoint" />
          </mxGeometry>
        </mxCell>
        <mxCell id="6kZoRdeB-bCqWQSc7o0m-81" style="edgeStyle=orthogonalEdgeStyle;rounded=0;orthogonalLoop=1;jettySize=auto;html=1;endArrow=none;endFill=0;" edge="1" parent="1">
          <mxGeometry relative="1" as="geometry">
            <mxPoint x="707.42" y="350" as="targetPoint" />
            <mxPoint x="707.42" y="370" as="sourcePoint" />
          </mxGeometry>
        </mxCell>
        <mxCell id="6kZoRdeB-bCqWQSc7o0m-82" value="I2C" style="text;html=1;align=center;verticalAlign=middle;resizable=0;points=[];autosize=1;strokeColor=none;fillColor=none;" vertex="1" parent="1">
          <mxGeometry x="800" y="335" width="40" height="30" as="geometry" />
        </mxCell>
        <mxCell id="6kZoRdeB-bCqWQSc7o0m-85" style="edgeStyle=orthogonalEdgeStyle;rounded=0;orthogonalLoop=1;jettySize=auto;html=1;entryX=0.25;entryY=0;entryDx=0;entryDy=0;dashed=1;" edge="1" parent="1" source="6kZoRdeB-bCqWQSc7o0m-83" target="6kZoRdeB-bCqWQSc7o0m-34">
          <mxGeometry relative="1" as="geometry" />
        </mxCell>
        <mxCell id="6kZoRdeB-bCqWQSc7o0m-83" value="Application" style="rounded=0;whiteSpace=wrap;html=1;" vertex="1" parent="1">
          <mxGeometry x="400" y="-10" width="120" height="60" as="geometry" />
        </mxCell>
        <mxCell id="6kZoRdeB-bCqWQSc7o0m-88" value="WebSockets" style="text;html=1;align=center;verticalAlign=middle;whiteSpace=wrap;rounded=0;" vertex="1" parent="1">
          <mxGeometry x="500" y="60" width="60" height="30" as="geometry" />
        </mxCell>
        <mxCell id="6kZoRdeB-bCqWQSc7o0m-91" style="edgeStyle=orthogonalEdgeStyle;rounded=0;orthogonalLoop=1;jettySize=auto;html=1;entryX=0.5;entryY=0;entryDx=0;entryDy=0;" edge="1" parent="1" source="6kZoRdeB-bCqWQSc7o0m-89" target="6kZoRdeB-bCqWQSc7o0m-1">
          <mxGeometry relative="1" as="geometry" />
        </mxCell>
        <mxCell id="6kZoRdeB-bCqWQSc7o0m-89" value="Throttle body" style="rounded=0;whiteSpace=wrap;html=1;" vertex="1" parent="1">
          <mxGeometry x="185" y="70" width="50" height="30" as="geometry" />
        </mxCell>
      </root>
    </mxGraphModel>
  </diagram>
</mxfile>
